{
	"asset":{
		"generator":"Khronos glTF Blender I/O v5.1.20",
		"version":"2.0"
	},
	"scene":0,
	"scenes":[
		{
			"name":"Scene",
			"nodes":[
				0,
				1,
				2,
				3,
				4
			]
		}
	],
	"nodes":[
		{
			"mesh":0,
			"name":"Mesh 1.001"
		},
		{
			"mesh":1,
			"name":"Mesh 2"
		},
		{
			"mesh":2,
			"name":"Mesh 5"
		},
		{
			"mesh":3,
			"name":"Mesh 4"
		},
		{
			"mesh":4,
			"name":"Mesh 3"
		}
	],
	"materials":[
		{
			"doubleSided":true,
			"name":"Material",
			"pbrMetallicRoughness":{
				"baseColorFactor":[
					0.800000011920929,
					0.800000011920929,
					0.800000011920929,
					1
				],
				"metallicFactor":0,
				"roughnessFactor":0.5
			}
		}
	],
	"meshes":[
		{
			"name":"Mesh 1.001",
			"primitives":[
				{
					"attributes":{
						"POSITION":0,
						"NORMAL":1
					},
					"indices":2,
					"material":0
				}
			]
		},
		{
			"name":"Mesh 2",
			"primitives":[
				{
					"attributes":{
						"POSITION":3,
						"NORMAL":4,
						"TEXCOORD_0":5
					},
					"indices":6,
					"material":0
				}
			]
		},
		{
			"name":"Mesh 5",
			"primitives":[
				{
					"attributes":{
						"POSITION":7,
						"NORMAL":8,
						"TEXCOORD_0":9
					},
					"indices":10,
					"material":0
				}
			]
		},
		{
			"name":"Mesh 4",
			"primitives":[
				{
					"attributes":{
						"POSITION":11,
						"NORMAL":12,
						"TEXCOORD_0":13
					},
					"indices":14,
					"material":0
				}
			]
		},
		{
			"name":"Mesh 3",
			"primitives":[
				{
					"attributes":{
						"POSITION":15,
						"NORMAL":16,
						"TEXCOORD_0":17
					},
					"indices":18,
					"material":0
				}
			]
		}
	],
	"accessors":[
		{
			"bufferView":0,
			"componentType":5126,
			"count":3090,
			"max":[
				4.0,
				0,
				0.0036149374209344387
			],
			"min":[
				-0.003631714964285493,
				0,
				-5.0
			],
			"type":"VEC3"
		},
		{
			"bufferView":1,
			"componentType":5126,
			"count":3090,
			"type":"VEC3"
		},
		{
			"bufferView":2,
			"componentType":5123,
			"count":9684,
			"type":"SCALAR"
		},
		{
			"bufferView":3,
			"componentType":5126,
			"count":909,
			"max":[
				4.0,
				0,
				-3.576570510864258
			],
			"min":[
				0.088,
				0,
				-5.0
			],
			"type":"VEC3"
		},
		{
			"bufferView":4,
			"componentType":5126,
			"count":909,
			"type":"VEC3"
		},
		{
			"bufferView":5,
			"componentType":5126,
			"count":909,
			"type":"VEC2"
		},
		{
			"bufferView":6,
			"componentType":5123,
			"count":2721,
			"type":"SCALAR"
		},
		{
			"bufferView":7,
			"componentType":5126,
			"count":1716,
			"max":[
				4.0,
				0,
				0.003614929039031267
			],
			"min":[
				-0.0034418783616274595,
				0,
				-5.0
			],
			"type":"VEC3"
		},
		{
			"bufferView":8,
			"componentType":5126,
			"count":1716,
			"type":"VEC3"
		},
		{
			"bufferView":9,
			"componentType":5126,
			"count":1716,
			"type":"VEC2"
		},
		{
			"bufferView":10,
			"componentType":5123,
			"count":5130,
			"type":"SCALAR"
		},
		{
			"bufferView":11,
			"componentType":5126,
			"count":3100,
			"max":[
				4.0,
				0,
				-0.4389512240886688
			],
			"min":[
				0.0128,
				0,
				-5.0
			],
			"type":"VEC3"
		},
		{
			"bufferView":12,
			"componentType":5126,
			"count":3100,
			"type":"VEC3"
		},
		{
			"bufferView":13,
			"componentType":5126,
			"count":3100,
			"type":"VEC2"
		},
		{
			"bufferView":14,
			"componentType":5123,
			"count":9294,
			"type":"SCALAR"
		},
		{
			"bufferView":15,
			"componentType":5126,
			"count":1501,
			"max":[
				3.91,
				0,
				-0.43872711062431335
			],
			"min":[
				0.0128,
				0,
				-4.97
			],
			"type":"VEC3"
		},
		{
			"bufferView":16,
			"componentType":5126,
			"count":1501,
			"type":"VEC3"
		},
		{
			"bufferView":17,
			"componentType":5126,
			"count":1501,
			"type":"VEC2"
		},
		{
			"bufferView":18,
			"componentType":5123,
			"count":4497,
			"type":"SCALAR"
		}
	],
	"bufferViews":[
		{
			"buffer":0,
			"byteLength":37080,
			"byteOffset":0,
			"target":34962
		},
		{
			"buffer":0,
			"byteLength":37080,
			"byteOffset":37080,
			"target":34962
		},
		{
			"buffer":0,
			"byteLength":19368,
			"byteOffset":74160,
			"target":34963
		},
		{
			"buffer":0,
			"byteLength":10908,
			"byteOffset":93528,
			"target":34962
		},
		{
			"buffer":0,
			"byteLength":10908,
			"byteOffset":104436,
			"target":34962
		},
		{
			"buffer":0,
			"byteLength":7272,
			"byteOffset":115344,
			"target":34962
		},
		{
			"buffer":0,
			"byteLength":5442,
			"byteOffset":122616,
			"target":34963
		},
		{
			"buffer":0,
			"byteLength":20592,
			"byteOffset":128060,
			"target":34962
		},
		{
			"buffer":0,
			"byteLength":20592,
			"byteOffset":148652,
			"target":34962
		},
		{
			"buffer":0,
			"byteLength":13728,
			"byteOffset":169244,
			"target":34962
		},
		{
			"buffer":0,
			"byteLength":10260,
			"byteOffset":182972,
			"target":34963
		},
		{
			"buffer":0,
			"byteLength":37200,
			"byteOffset":193232,
			"target":34962
		},
		{
			"buffer":0,
			"byteLength":37200,
			"byteOffset":230432,
			"target":34962
		},
		{
			"buffer":0,
			"byteLength":24800,
			"byteOffset":267632,
			"target":34962
		},
		{
			"buffer":0,
			"byteLength":18588,
			"byteOffset":292432,
			"target":34963
		},
		{
			"buffer":0,
			"byteLength":18012,
			"byteOffset":311020,
			"target":34962
		},
		{
			"buffer":0,
			"byteLength":18012,
			"byteOffset":329032,
			"target":34962
		},
		{
			"buffer":0,
			"byteLength":12008,
			"byteOffset":347044,
			"target":34962
		},
		{
			"buffer":0,
			"byteLength":8994,
			"byteOffset":359052,
			"target":34963
		}
	],
	"buffers":[
		{
			"byteLength":368048,
			"uri":"tag.bin"
		}
	]
}